<?xml version="1.0" standalone="no"?>
<!DOCTYPE svg PUBLIC "-//W3C//DTD SVG 20010904//EN"
 "http://www.w3.org/TR/2001/REC-SVG-20010904/DTD/svg10.dtd">
<svg version="1.0" xmlns="http://www.w3.org/2000/svg"
 width="384.000000pt" height="384.000000pt" viewBox="0 0 384.000000 384.000000"
 preserveAspectRatio="xMidYMid meet">
<metadata>
Created by potrace 1.14, written by Peter Selinger 2001-2017
</metadata>
<g transform="translate(0.000000,384.000000) scale(0.100000,-0.100000)"
fill="#000000" stroke="none">
<path d="M960 2804 c-215 -58 -360 -284 -322 -505 17 -100 55 -174 126 -245
109 -109 193 -134 445 -134 167 0 168 0 230 -31 138 -69 189 -220 120 -358
-33 -65 -67 -98 -139 -130 -44 -20 -64 -21 -692 -21 -357 0 -648 -2 -648 -4 0
-15 69 -196 102 -268 l41 -88 1253 0 1254 0 0 -416 c0 -415 0 -415 21 -409 37
12 230 124 285 165 l54 41 0 309 0 310 263 0 264 0 36 78 c20 42 52 123 71
179 l35 103 -762 2 -762 3 -60 29 c-77 38 -153 114 -191 191 l-29 60 0 255 0
255 29 60 c38 77 114 153 191 191 55 26 69 29 165 29 96 0 110 -3 165 -29 77
-38 153 -114 191 -191 l29 -60 3 -367 3 -368 180 0 180 0 -3 383 c-4 359 -6
386 -26 455 -69 230 -233 408 -452 495 -116 46 -144 47 -889 46 -588 0 -715
-3 -761 -15z m1340 -166 c-104 -17 -175 -39 -239 -75 -122 -68 -225 -198 -268
-338 -15 -51 -18 -96 -18 -305 0 -209 3 -254 18 -305 65 -213 248 -374 461
-405 28 -4 -158 -8 -414 -8 -387 0 -457 2 -415 12 83 20 146 56 211 120 177
178 177 454 0 632 -109 109 -193 134 -445 134 -167 0 -168 0 -230 31 -65 33
-98 67 -130 139 -58 128 10 290 149 353 18 9 210 14 650 17 344 3 648 6 675 6
l50 1 -55 -9z m138 -5 c-10 -2 -28 -2 -40 0 -13 2 -5 4 17 4 22 1 32 -1 23 -4z
m49 -9 c-3 -3 -12 -4 -19 -1 -8 3 -5 6 6 6 11 1 17 -2 13 -5z m211 -108 c10
-12 0 -8 -23 9 -56 40 -66 51 -27 29 18 -10 41 -28 50 -38z m93 -93 c13 -16
12 -17 -3 -4 -17 13 -22 21 -14 21 2 0 10 -8 17 -17z m116 -305 c-3 -7 -5 -2
-5 12 0 14 2 19 5 13 2 -7 2 -19 0 -25z"/>
</g>
</svg>
