<?xml version="1.0" standalone="no"?>
<!DOCTYPE svg PUBLIC "-//W3C//DTD SVG 20010904//EN"
 "http://www.w3.org/TR/2001/REC-SVG-20010904/DTD/svg10.dtd">
<svg version="1.0" xmlns="http://www.w3.org/2000/svg"
 width="382.000000pt" height="382.000000pt" viewBox="0 0 382.000000 382.000000"
 preserveAspectRatio="xMidYMid meet">
<metadata>
Created by potrace 1.14, written by Peter Selinger 2001-2017
</metadata>
<g transform="translate(0.000000,382.000000) scale(0.100000,-0.100000)"
fill="#000000" stroke="none">
<path d="M1701 3809 c-115 -12 -292 -53 -415 -96 -554 -191 -988 -625 -1179
-1179 -345 -996 184 -2083 1179 -2427 996 -345 2083 184 2427 1179 345 996
-184 2083 -1179 2427 -263 91 -554 125 -833 96z m512 -399 c602 -117 1062
-571 1199 -1181 20 -90 23 -131 23 -309 0 -178 -3 -219 -23 -309 -122 -543
-494 -959 -1011 -1131 -175 -58 -276 -74 -481 -74 -197 1 -303 18 -487 79
-435 145 -797 508 -944 945 -61 183 -73 265 -73 490 0 174 3 220 22 303 105
471 392 845 812 1057 138 69 337 129 502 150 112 14 337 4 461 -20z"/>
<path d="M3155 2368 c-27 -17 -92 -63 -145 -103 -138 -105 -248 -174 -398
-248 -229 -114 -328 -195 -412 -335 -24 -41 -48 -75 -54 -77 -6 -1 -63 -10
-128 -20 l-116 -17 -62 42 c-133 90 -248 118 -520 126 -159 5 -207 11 -340 39
-85 19 -197 48 -248 64 -52 17 -108 31 -125 31 l-32 -1 35 -30 c73 -63 165
-97 455 -170 154 -39 347 -81 428 -95 241 -40 303 -75 396 -219 52 -82 64 -95
99 -106 51 -15 82 -7 126 32 45 39 74 99 82 171 6 54 9 59 70 113 68 60 79 79
39 69 -14 -3 -25 -3 -25 1 0 20 77 108 123 141 29 21 95 70 147 109 52 39 162
111 243 161 134 80 367 260 431 333 19 21 19 21 0 21 -10 0 -41 -14 -69 -32z"/>
</g>
</svg>
